#!OML:ASF X:\für Bonn\!DataBase\2005_08_10_Bjorn_Final\c3d\bjorn.ASF
:FULLY-SPECIFIED
:DEGREES
170
root 15.4957 18.2776 1.57321 171.384 -102.919 -136.307
lowerback 74.2829 -4.52461 11.9929
upperback 16.0121 0.191699 -0.160784
thorax -2.09796 -0.0596349 -4.86977
lowerneck 7.76101 -7.04184 10.2115
upperneck -20.8698 -8.43181 0.171061
head -8.21569 -5.04873 -0.767285
rclavicle -2.54444e-014 -3.81667e-014
rhumerus 68.6787 -15.3415 -46.4151
rradius 20.7691
rwrist -2.60258
rhand -49.0621 26.9325
rfingers 7.12502
rthumb -21.6886 -1.87261
lclavicle -2.54444e-014 -3.81667e-014
lhumerus -12.7474 -31.7177 81.4116
lradius 57.8812
lwrist 1.68212
lhand -34.5679 -14.5313
lfingers 7.12502
lthumb -7.72773 15.3075
rfemur -64.8975 -8.04984 2.92117
rtibia 52.5952
rfoot -16.8338 -0.204089
rtoes -10.6269
lfemur -64.7267 -2.31007 -27.019
ltibia 51.1679
lfoot -12.6799 8.58717
ltoes -22.1359
171
root 15.4955 18.2752 1.58802 171.652 -102.942 -136.574
lowerback 74.2192 -4.54321 12.0442
upperback 15.9832 0.206319 -0.187757
thorax -2.13247 -0.0489495 -4.92753
lowerneck 7.72547 -7.05339 10.3806
upperneck -20.7473 -8.44641 0.0590654
head -8.1825 -5.05236 -0.832777
rclavicle -1.59028e-014 1.11319e-014
rhumerus 68.4726 -15.3846 -46.2167
rradius 20.7472
rwrist -2.79949
rhand -49.3058 27.9354
rfingers 7.12502
rthumb -21.9226 -0.842464
lclavicle -1.59028e-014 1.11319e-014
lhumerus -13.0204 -31.9491 81.4941
lradius 57.8996
lwrist 1.66083
lhand -34.5976 -14.4374
lfingers 7.12502
lthumb -7.75638 15.4004
rfemur -64.8741 -8.12184 2.94429
rtibia 52.6039
rfoot -16.8487 -0.148574
rtoes -10.6016
lfemur -64.765 -2.22866 -27.1107
ltibia 51.2335
lfoot -12.7007 8.4096
ltoes -22.115
172
root 15.4956 18.2717 1.60102 171.827 -102.98 -136.762
lowerback 74.1719 -4.53207 12.0328
upperback 15.9531 0.215659 -0.181866
thorax -2.17304 -0.049125 -4.92121
lowerneck 7.72422 -7.05181 10.4762
upperneck -20.6703 -8.44409 -0.0197901
head -8.1645 -5.04713 -0.875544
rclavicle 1.59028e-014 4.6118e-014
rhumerus 68.3037 -15.3168 -45.8755
rradius 20.7661
rwrist -3.20831
rhand -49.4322 28.6804
rfingers 7.12502
rthumb -22.044 -0.08321
lclavicle 1.59028e-014 4.6118e-014
lhumerus -13.3638 -32.0739 81.6194
lradius 57.9631
lwrist 1.61619
lhand -34.644 -14.4486
lfingers 7.12502
lthumb -7.80118 15.3875
rfemur -64.8373 -8.17198 2.92631
rtibia 52.6183
rfoot -16.8688 -0.146035
rtoes -10.6253
lfemur -64.7834 -2.14567 -27.2254
ltibia 51.2972
lfoot -12.705 8.23383
ltoes -22.1499
173
root 15.4966 18.2674 1.61415 172.056 -103.01 -136.985
lowerback 74.0731 -4.52044 12.0431
upperback 15.9544 0.226606 -0.182366
thorax -2.18033 -0.0439912 -4.93319
lowerneck 7.67684 -7.05245 10.5978
upperneck -20.5968 -8.4498 -0.108468
head -8.14169 -5.04796 -0.926243
rclavicle -1.27222e-014 -3.02153e-014
rhumerus 68.1344 -15.2424 -45.4356
rradius 20.8057
rwrist -3.65196
rhand -49.487 29.0052
rfingers 7.12502
rthumb -22.0966 0.247757
lclavicle -1.27222e-014 -3.02153e-014
lhumerus -13.6524 -32.1781 81.7403
lradius 57.9954
lwrist 1.51566
lhand -34.6977 -14.4631
lfingers 7.12502
lthumb -7.85304 15.371
rfemur -64.8312 -8.23839 2.93475
rtibia 52.6384
rfoot -16.8973 -0.120302
rtoes -10.6241
lfemur -64.8405 -2.01024 -27.3756
ltibia 51.3675
lfoot -12.6857 8.01915
ltoes -22.2529
174
root 15.4975 18.2645 1.62609 172.32 -103.038 -137.256
lowerback 73.9991 -4.51204 12.0516
upperback 15.9429 0.237464 -0.187489
thorax -2.20006 -0.0395657 -4.94886
lowerneck 7.5751 -7.03919 10.6914
upperneck -20.4628 -8.44279 -0.17925
head -8.08575 -5.0404 -0.971555
rclavicle -3.49861e-014 -4.92986e-014
rhumerus 67.9696 -15.1197 -44.9514
rradius 20.8435
rwrist -4.03321
rhand -49.447 29.1065
rfingers 7.12502
rthumb -22.0583 0.344582
lclavicle -3.49861e-014 -4.92986e-014
lhumerus -13.9316 -32.2628 81.8441
lradius 57.9818
lwrist 1.39614
lhand -34.7458 -14.576
lfingers 7.12502
lthumb -7.89944 15.2564
rfemur -64.8139 -8.27839 2.94627
rtibia 52.6611
rfoot -16.9182 -0.1282
rtoes -10.759
lfemur -64.8804 -1.87655 -27.5002
ltibia 51.4366
lfoot -12.659 7.79606
ltoes -22.2176
175
root 15.4993 18.26 1.63748 172.512 -103.083 -137.44
lowerback 73.8614 -4.50176 12.0662
upperback 15.9917 0.236583 -0.180988
thorax -2.15611 -0.0362096 -4.9516
lowerneck 7.35235 -7.0113 10.7461
upperneck -20.3231 -8.43776 -0.239458
head -8.00375 -5.03448 -1.01181
rclavicle -6.04305e-014 -7.95139e-015
rhumerus 67.8759 -15.0367 -44.4393
rradius 20.8528
rwrist -4.39673
rhand -49.2938 29.1892
rfingers 7.12502
rthumb -21.9111 0.409909
lclavicle -6.04305e-014 -7.95139e-015
lhumerus -14.0944 -32.3472 81.933
lradius 57.9133
lwrist 1.27029
lhand -34.8225 -14.6125
lfingers 7.12502
lthumb -7.97345 15.2172
rfemur -64.8114 -8.32963 2.92789
rtibia 52.6947
rfoot -16.9465 -0.131624
rtoes -10.7577
lfemur -64.9419 -1.74698 -27.6528
ltibia 51.5102
lfoot -12.6264 7.56102
ltoes -22.1831
176
root 15.5007 18.2551 1.64801 172.61 -103.119 -137.531
lowerback 73.7248 -4.4837 12.0783
upperback 16.0483 0.237652 -0.193619
thorax -2.1035 -0.0282722 -4.97652
lowerneck 7.07087 -6.97764 10.8254
upperneck -20.1447 -8.42369 -0.280228
head -7.8986 -5.02683 -1.05334
rclavicle 7.31528e-014 -2.06736e-014
rhumerus 67.7892 -14.9688 -43.9572
rradius 20.8329
rwrist -4.61748
rhand -49.0085 29.3474
rfingers 7.12502
rthumb -21.6372 0.536332
lclavicle 7.31528e-014 -2.06736e-014
lhumerus -14.2412 -32.4041 82.0012
lradius 57.8377
lwrist 1.10115
lhand -34.8704 -14.6888
lfingers 7.12502
lthumb -8.01968 15.139
rfemur -64.8141 -8.3878 2.90178
rtibia 52.7316
rfoot -16.9802 -0.103777
rtoes -10.7669
lfemur -65.0019 -1.58677 -27.8432
ltibia 51.5835
lfoot -12.605 7.2822
ltoes -22.0195
177
root 15.5033 18.2512 1.65704 172.793 -103.158 -137.711
lowerback 73.5853 -4.44648 12.0853
upperback 16.1179 0.255347 -0.169632
thorax -2.0348 -0.0180598 -4.96397
lowerneck 6.72026 -6.93855 10.8745
upperneck -19.9357 -8.42684 -0.363488
head -7.77204 -5.02189 -1.10543
rclavicle -6.36111e-014 -2.70347e-014
rhumerus 67.7603 -14.8803 -43.359
rradius 20.74
rwrist -4.72185
rhand -48.6488 29.593
rfingers 7.12502
rthumb -21.2918 0.742557
lclavicle -6.36111e-014 -2.70347e-014
lhumerus -14.3513 -32.4399 82.0969
lradius 57.731
lwrist 0.938842
lhand -34.9194 -14.7082
lfingers 7.12502
lthumb -8.06694 15.1178
rfemur -64.8262 -8.41993 2.88814
rtibia 52.7769
rfoot -17.0048 -0.142185
rtoes -10.9171
lfemur -65.0623 -1.43642 -27.9974
ltibia 51.6579
lfoot -12.5852 7.03394
ltoes -22.0407
178
root 15.5059 18.2461 1.66648 172.972 -103.182 -137.881
lowerback 73.4303 -4.39951 12.0895
upperback 16.2034 0.274554 -0.149043
thorax -1.94934 -0.00573312 -4.9557
lowerneck 6.40243 -6.89164 10.924
upperneck -19.8162 -8.41441 -0.436113
head -7.68022 -5.01413 -1.15245
rclavicle 6.04305e-014 2.06736e-014
rhumerus 67.7638 -14.7819 -42.747
rradius 20.5945
rwrist -4.68639
rhand -48.1323 30.0029
rfingers 7.12502
rthumb -20.7955 1.09732
lclavicle 6.04305e-014 2.06736e-014
lhumerus -14.4658 -32.461 82.1862
lradius 57.6643
lwrist 0.763896
lhand -34.9416 -14.7012
lfingers 7.12502
lthumb -8.08843 15.124
rfemur -64.8474 -8.44105 2.86915
rtibia 52.8214
rfoot -17.0421 -0.139841
rtoes -10.9705
lfemur -65.1368 -1.28043 -28.1473
ltibia 51.7372
lfoot -12.5769 6.78866
ltoes -21.8593
179
root 15.5087 18.2415 1.67486 173.043 -103.242 -137.937
lowerback 73.2826 -4.37348 12.081
upperback 16.2634 0.273093 -0.136661
thorax -1.89546 -0.00302044 -4.94337
lowerneck 6.18408 -6.86384 10.9789
upperneck -19.734 -8.41552 -0.514355
head -7.61999 -5.01261 -1.19613
rclavicle 9.85972e-014 -1.59028e-014
rhumerus 67.8127 -14.658 -42.2523
rradius 20.3588
rwrist -4.34429
rhand -47.5591 30.61
rfingers 7.12502
rthumb -20.2447 1.64505
lclavicle 9.85972e-014 -1.59028e-014
lhumerus -14.6323 -32.5025 82.2897
lradius 57.618
lwrist 0.700389
lhand -34.9662 -14.6111
lfingers 7.12502
lthumb -8.11212 15.2132
rfemur -64.8549 -8.48436 2.81038
rtibia 52.8706
rfoot -17.0802 -0.161428
rtoes -10.8756
lfemur -65.2091 -1.15543 -28.3384
ltibia 51.8138
lfoot -12.537 6.57621
ltoes -21.9999
180
root 15.5121 18.2361 1.68244 173.226 -103.273 -138.109
lowerback 73.1278 -4.34982 12.1106
upperback 16.3405 0.283944 -0.152813
thorax -1.81803 0.0124332 -4.98373
lowerneck 5.93069 -6.83298 11.0975
upperneck -19.6669 -8.40456 -0.574213
head -7.56082 -5.01251 -1.24569
rclavicle -1.59028e-014 4.77083e-014
rhumerus 67.8567 -14.5733 -41.7817
rradius 20.1147
rwrist -3.90896
rhand -46.9252 31.3117
rfingers 7.12502
rthumb -19.6354 2.28329
lclavicle -1.59028e-014 4.77083e-014
lhumerus -14.7373 -32.5469 82.3572
lradius 57.5406
lwrist 0.67804
lhand -34.9833 -14.5864
lfingers 7.12502
lthumb -8.12867 15.2372
rfemur -64.8871 -8.5028 2.79644
rtibia 52.9233
rfoot -17.1177 -0.196629
rtoes -11.0988
lfemur -65.2931 -1.01626 -28.4746
ltibia 51.9015
lfoot -12.5219 6.34575
ltoes -21.8879
181
root 15.5167 18.2304 1.68897 173.247 -103.335 -138.12
lowerback 72.9784 -4.3238 12.1107
upperback 16.4104 0.283694 -0.160119
thorax -1.75188 0.0204454 -4.99809
lowerneck 5.76715 -6.82427 11.2185
upperneck -19.6732 -8.41526 -0.640841
head -7.54365 -5.02439 -1.29074
rclavicle -6.36111e-015 -4.29375e-014
rhumerus 67.9289 -14.4552 -41.2605
rradius 19.7977
rwrist -3.39615
rhand -46.2068 32.0899
rfingers 7.12502
rthumb -18.9446 2.99246
lclavicle -6.36111e-015 -4.29375e-014
lhumerus -14.8359 -32.6055 82.409
lradius 57.4629
lwrist 0.639412
lhand -34.9793 -14.5383
lfingers 7.12502
lthumb -8.1248 15.2855
rfemur -64.9082 -8.53893 2.72603
rtibia 52.9826
rfoot -17.1462 -0.231303
rtoes -11.124
lfemur -65.367 -0.928417 -28.6322
ltibia 51.9899
lfoot -12.5124 6.11964
ltoes -21.7009
182
root 15.5212 18.2244 1.69541 173.399 -103.374 -138.243
lowerback 72.8273 -4.28251 12.1041
upperback 16.4685 0.297506 -0.153499
thorax -1.69906 0.0304772 -4.99932
lowerneck 5.5818 -6.79451 11.2814
upperneck -19.6513 -8.40474 -0.695256
head -7.5083 -5.02211 -1.32647
rclavicle -1.27222e-014 -2.70347e-014
rhumerus 68.0269 -14.3254 -40.7769
rradius 19.5234
rwrist -2.7533
rhand -45.3732 32.7615
rfingers 7.12502
rthumb -18.1427 3.58759
lclavicle -1.27222e-014 -2.70347e-014
lhumerus -14.9682 -32.638 82.512
lradius 57.4213
lwrist 0.68088
lhand -34.9815 -14.372
lfingers 7.12502
lthumb -8.12694 15.4517
rfemur -64.9628 -8.54553 2.68945
rtibia 53.0456
rfoot -17.1765 -0.283055
rtoes -11.2303
lfemur -65.4802 -0.818647 -28.765
ltibia 52.0947
lfoot -12.4883 5.93493
ltoes -21.7673
183
root 15.5257 18.2186 1.70104 173.52 -103.398 -138.342
lowerback 72.6753 -4.23402 12.1196
upperback 16.5353 0.327793 -0.165159
thorax -1.63296 0.0527104 -5.03659
lowerneck 5.35325 -6.79129 11.4063
upperneck -19.5956 -8.43249 -0.766298
head -7.46067 -5.04057 -1.37544
rclavicle -6.36111e-014 -5.08889e-014
rhumerus 68.108 -14.2469 -40.3138
rradius 19.248
rwrist -1.98033
rhand -44.4698 33.1929
rfingers 7.12502
rthumb -17.2734 3.94057
lclavicle -6.36111e-014 -5.08889e-014
lhumerus -15.0273 -32.6939 82.5695
lradius 57.3264
lwrist 0.713111
lhand -34.9446 -14.2881
lfingers 7.12502
lthumb -8.09131 15.537
rfemur -65.0202 -8.5532 2.6638
rtibia 53.1113
rfoot -17.2008 -0.340871
rtoes -11.4126
lfemur -65.5938 -0.701502 -28.8888
ltibia 52.2022
lfoot -12.481 5.74173
ltoes -21.5758
